<mxfile host="Electron" modified="2023-07-12T06:42:52.367Z" agent="Mozilla/5.0 (Windows NT 10.0; Win64; x64) AppleWebKit/537.36 (KHTML, like Gecko) draw.io/21.6.1 Chrome/112.0.5615.204 Electron/24.6.1 Safari/537.36" etag="evOJQhhNF71OMYETE8Jj" version="21.6.1" type="device">
  <diagram name="Page-1" id="Rr0I30NxoxYuhGjsdFWW">
    <mxGraphModel dx="1098" dy="828" grid="1" gridSize="10" guides="1" tooltips="1" connect="1" arrows="1" fold="1" page="1" pageScale="1" pageWidth="827" pageHeight="1169" math="0" shadow="0">
      <root>
        <mxCell id="0" />
        <mxCell id="1" parent="0" />
        <mxCell id="CjykTE6NthXvucalXact-1" value="" style="ellipse;whiteSpace=wrap;html=1;aspect=fixed;strokeColor=#0000FF;" parent="1" vertex="1">
          <mxGeometry x="404" y="30" width="20" height="20" as="geometry" />
        </mxCell>
        <mxCell id="CjykTE6NthXvucalXact-4" value="" style="endArrow=classic;html=1;rounded=0;" parent="1" edge="1">
          <mxGeometry width="50" height="50" relative="1" as="geometry">
            <mxPoint x="414" y="50" as="sourcePoint" />
            <mxPoint x="414" y="110" as="targetPoint" />
          </mxGeometry>
        </mxCell>
        <mxCell id="CjykTE6NthXvucalXact-9" value="" style="swimlane;startSize=0;" parent="1" vertex="1">
          <mxGeometry x="314" y="110" width="200" height="60" as="geometry" />
        </mxCell>
        <mxCell id="CjykTE6NthXvucalXact-6" value="Saisir le 1er nombre" style="text;html=1;align=center;verticalAlign=middle;resizable=0;points=[];autosize=1;strokeColor=none;fillColor=none;" parent="CjykTE6NthXvucalXact-9" vertex="1">
          <mxGeometry x="35" y="15" width="130" height="30" as="geometry" />
        </mxCell>
        <mxCell id="CjykTE6NthXvucalXact-12" value="" style="endArrow=classic;html=1;rounded=0;" parent="1" edge="1">
          <mxGeometry width="50" height="50" relative="1" as="geometry">
            <mxPoint x="414" y="170" as="sourcePoint" />
            <mxPoint x="414" y="230" as="targetPoint" />
          </mxGeometry>
        </mxCell>
        <mxCell id="CjykTE6NthXvucalXact-13" value="Saisir le 2iÃ¨me nombre" style="text;html=1;align=center;verticalAlign=middle;resizable=0;points=[];autosize=1;strokeColor=none;fillColor=none;" parent="1" vertex="1">
          <mxGeometry x="339" y="250" width="150" height="30" as="geometry" />
        </mxCell>
        <mxCell id="CjykTE6NthXvucalXact-17" value="" style="swimlane;startSize=0;" parent="1" vertex="1">
          <mxGeometry x="314" y="235" width="200" height="60" as="geometry" />
        </mxCell>
        <mxCell id="CjykTE6NthXvucalXact-21" value="Nombre 1 + Nombre 2" style="text;html=1;align=center;verticalAlign=middle;resizable=0;points=[];autosize=1;strokeColor=none;fillColor=none;" parent="1" vertex="1">
          <mxGeometry x="344" y="350" width="140" height="30" as="geometry" />
        </mxCell>
        <mxCell id="CjykTE6NthXvucalXact-26" value="" style="line;strokeWidth=2;html=1;" parent="1" vertex="1">
          <mxGeometry x="329" y="370" width="160" height="10" as="geometry" />
        </mxCell>
        <mxCell id="CjykTE6NthXvucalXact-27" value="2" style="text;html=1;align=center;verticalAlign=middle;resizable=0;points=[];autosize=1;strokeColor=none;fillColor=none;" parent="1" vertex="1">
          <mxGeometry x="395" y="378" width="30" height="30" as="geometry" />
        </mxCell>
      </root>
    </mxGraphModel>
  </diagram>
</mxfile>
